<svg width="147" height="49" viewBox="0 0 147 49" fill="none" xmlns="http://www.w3.org/2000/svg">
<path d="M14.597 11.8137H6.76119L3.4882 41.5626C3.22767 43.9306 5.08189 46 7.46421 46H40.5358C42.9181 46 44.7723 43.9306 44.5118 41.5626L41.2388 11.8137H33.403M14.597 11.8137H33.403M14.597 11.8137C14.597 0.0621166 33.403 0.0621166 33.403 11.8137" stroke="url(#paint0_linear_2_124)" stroke-width="6"/>
<path d="M47.0683 28.6298L32.5435 24.8317C31.7845 24.6333 31.1029 25.3462 31.3354 26.0955L35.7841 40.4345C36.0386 41.2547 37.1406 41.3937 37.5908 40.6623L39.2536 37.961C39.5873 37.4189 40.336 37.3224 40.7962 37.7624L44.8532 41.6405C45.2524 42.0221 45.8854 42.0078 46.267 41.6086L48.7136 39.0491C49.0953 38.6499 49.081 38.0169 48.6818 37.6353L44.6248 33.7572C44.1646 33.3173 44.2272 32.565 44.7537 32.2072L47.3774 30.4244C48.0878 29.9417 47.8993 28.8471 47.0683 28.6298Z" fill="white" stroke="url(#paint1_linear_2_124)" stroke-width="3"/>
<path d="M70.9556 15.2479L62.0129 43.0165C61.5338 44.2837 60.6821 44.9174 59.4578 44.9174C58.1803 44.9174 57.302 44.2837 56.8229 43.0165L48 15.2479H53.7489L59.4578 34.4215L65.1668 15.2479H70.9556Z" fill="url(#paint2_linear_2_124)"/>
<path d="M93.1149 44.6694H83.0543C79.8605 44.6694 77.6115 44.1047 76.3074 42.9752C75.0299 41.8182 74.3911 39.7934 74.3911 36.9008V15.2479H93.1149V20.3719H79.9404V27.2727H89.1625L88.7633 32.3967H79.9404V36.4876C79.9404 37.6446 80.1932 38.4435 80.6989 38.8843C81.2046 39.3251 82.1228 39.5455 83.4536 39.5455H93.1149V44.6694Z" fill="url(#paint3_linear_2_124)"/>
<path d="M120.72 15.2479V41.6942C120.72 42.6033 120.454 43.3884 119.922 44.0496C119.389 44.6832 118.764 45 118.045 45C116.209 45 114.705 43.8981 113.534 41.6942L103.713 25.7851V44.6694H98.1638V15.2479H103.513L115.171 34.5041V15.2479H120.72Z" fill="url(#paint4_linear_2_124)"/>
<path d="M140.85 33.2645H146C146 37.011 145.095 39.8898 143.285 41.9008C141.475 43.9118 138.92 44.9174 135.62 44.9174C128.354 44.9174 124.721 40.4959 124.721 31.6529V29.1736C124.721 22.2039 126.584 17.8375 130.31 16.0744C131.774 15.3581 133.544 15 135.62 15C138.654 15 141.116 15.8678 143.006 17.6033C144.922 19.3113 145.88 21.7906 145.88 25.0413H140.69C140.398 23.416 139.879 22.1901 139.133 21.3636C138.388 20.5372 137.217 20.124 135.62 20.124C133.757 20.124 132.373 20.73 131.468 21.9422C130.829 22.7961 130.457 24.2562 130.35 26.3223C130.297 26.9835 130.27 27.8788 130.27 29.0083V31.5702C130.27 34.7383 130.696 36.9008 131.548 38.0579C132.426 39.2149 133.784 39.7934 135.62 39.7934C137.483 39.7934 138.761 39.27 139.453 38.2231C140.171 37.1488 140.637 35.4959 140.85 33.2645Z" fill="url(#paint5_linear_2_124)"/>
<path d="M70.9556 15.2479L62.0129 43.0165C61.5338 44.2837 60.6821 44.9174 59.4578 44.9174C58.1803 44.9174 57.302 44.2837 56.8229 43.0165L48 15.2479H53.7489L59.4578 34.4215L65.1668 15.2479H70.9556Z" stroke="url(#paint6_linear_2_124)" stroke-width="2"/>
<path d="M93.1149 44.6694H83.0543C79.8605 44.6694 77.6115 44.1047 76.3074 42.9752C75.0299 41.8182 74.3911 39.7934 74.3911 36.9008V15.2479H93.1149V20.3719H79.9404V27.2727H89.1625L88.7633 32.3967H79.9404V36.4876C79.9404 37.6446 80.1932 38.4435 80.6989 38.8843C81.2046 39.3251 82.1228 39.5455 83.4536 39.5455H93.1149V44.6694Z" stroke="url(#paint7_linear_2_124)" stroke-width="2"/>
<path d="M120.72 15.2479V41.6942C120.72 42.6033 120.454 43.3884 119.922 44.0496C119.389 44.6832 118.764 45 118.045 45C116.209 45 114.705 43.8981 113.534 41.6942L103.713 25.7851V44.6694H98.1638V15.2479H103.513L115.171 34.5041V15.2479H120.72Z" stroke="url(#paint8_linear_2_124)" stroke-width="2"/>
<path d="M140.85 33.2645H146C146 37.011 145.095 39.8898 143.285 41.9008C141.475 43.9118 138.92 44.9174 135.62 44.9174C128.354 44.9174 124.721 40.4959 124.721 31.6529V29.1736C124.721 22.2039 126.584 17.8375 130.31 16.0744C131.774 15.3581 133.544 15 135.62 15C138.654 15 141.116 15.8678 143.006 17.6033C144.922 19.3113 145.88 21.7906 145.88 25.0413H140.69C140.398 23.416 139.879 22.1901 139.133 21.3636C138.388 20.5372 137.217 20.124 135.62 20.124C133.757 20.124 132.373 20.73 131.468 21.9422C130.829 22.7961 130.457 24.2562 130.35 26.3223C130.297 26.9835 130.27 27.8788 130.27 29.0083V31.5702C130.27 34.7383 130.696 36.9008 131.548 38.0579C132.426 39.2149 133.784 39.7934 135.62 39.7934C137.483 39.7934 138.761 39.27 139.453 38.2231C140.171 37.1488 140.637 35.4959 140.85 33.2645Z" stroke="url(#paint9_linear_2_124)" stroke-width="2"/>
<path d="M32 20.7756L31.8493 17M27.5196 22.2419L25.0648 19.5193M26.5327 26.7624L23 27" stroke="url(#paint10_linear_2_124)" stroke-width="3" stroke-linecap="round"/>
<defs>
<linearGradient id="paint0_linear_2_124" x1="24" y1="3" x2="24" y2="46" gradientUnits="userSpaceOnUse">
<stop stop-color="#6FE239"/>
<stop offset="1" stop-color="#47C40D"/>
</linearGradient>
<linearGradient id="paint1_linear_2_124" x1="30.8021" y1="24.3763" x2="47.4903" y2="40.3289" gradientUnits="userSpaceOnUse">
<stop stop-color="#6FE239"/>
<stop offset="1" stop-color="#47C40D"/>
</linearGradient>
<linearGradient id="paint2_linear_2_124" x1="97" y1="15" x2="97" y2="45" gradientUnits="userSpaceOnUse">
<stop stop-color="#6FE239"/>
<stop offset="1" stop-color="#47C40D"/>
</linearGradient>
<linearGradient id="paint3_linear_2_124" x1="97" y1="15" x2="97" y2="45" gradientUnits="userSpaceOnUse">
<stop stop-color="#6FE239"/>
<stop offset="1" stop-color="#47C40D"/>
</linearGradient>
<linearGradient id="paint4_linear_2_124" x1="97" y1="15" x2="97" y2="45" gradientUnits="userSpaceOnUse">
<stop stop-color="#6FE239"/>
<stop offset="1" stop-color="#47C40D"/>
</linearGradient>
<linearGradient id="paint5_linear_2_124" x1="97" y1="15" x2="97" y2="45" gradientUnits="userSpaceOnUse">
<stop stop-color="#6FE239"/>
<stop offset="1" stop-color="#47C40D"/>
</linearGradient>
<linearGradient id="paint6_linear_2_124" x1="97" y1="15" x2="97" y2="45" gradientUnits="userSpaceOnUse">
<stop stop-color="#6FE239"/>
<stop offset="1" stop-color="#47C40D"/>
</linearGradient>
<linearGradient id="paint7_linear_2_124" x1="97" y1="15" x2="97" y2="45" gradientUnits="userSpaceOnUse">
<stop stop-color="#6FE239"/>
<stop offset="1" stop-color="#47C40D"/>
</linearGradient>
<linearGradient id="paint8_linear_2_124" x1="97" y1="15" x2="97" y2="45" gradientUnits="userSpaceOnUse">
<stop stop-color="#6FE239"/>
<stop offset="1" stop-color="#47C40D"/>
</linearGradient>
<linearGradient id="paint9_linear_2_124" x1="97" y1="15" x2="97" y2="45" gradientUnits="userSpaceOnUse">
<stop stop-color="#6FE239"/>
<stop offset="1" stop-color="#47C40D"/>
</linearGradient>
<linearGradient id="paint10_linear_2_124" x1="27.5" y1="17" x2="27.5" y2="27" gradientUnits="userSpaceOnUse">
<stop stop-color="#6FE239"/>
<stop offset="1" stop-color="#47C40D"/>
</linearGradient>
</defs>
</svg>
